<svg width="69" height="69" viewBox="0 0 69 69" fill="none" xmlns="http://www.w3.org/2000/svg">
<path d="M68.2675 34.4697C68.2675 15.8034 53.1357 0.672119 34.4699 0.672119C15.8035 0.672119 0.672241 15.8034 0.672241 34.4697C0.672241 53.1356 15.8035 68.2673 34.4699 68.2673C53.1357 68.2673 68.2675 53.1356 68.2675 34.4697Z" fill="#EEF2F5"/>
<mask id="mask0_120_1686" style="mask-type:luminance" maskUnits="userSpaceOnUse" x="0" y="0" width="70" height="69">
<path d="M0 0H69.0061V69H0V0Z" fill="white"/>
</mask>
<g mask="url(#mask0_120_1686)">
<path d="M34.4697 1.34426C16.2042 1.34426 1.34426 16.2042 1.34426 34.4697C1.34426 52.7347 16.2042 67.5952 34.4697 67.5952C52.7347 67.5952 67.5952 52.7347 67.5952 34.4697C67.5952 16.2042 52.7347 1.34426 34.4697 1.34426ZM34.4697 68.9395C25.2621 68.9395 16.6066 65.3534 10.0961 58.8434C3.58554 52.3329 0 43.6769 0 34.4697C0 25.2621 3.58554 16.6066 10.0961 10.0961C16.6066 3.58554 25.2621 0 34.4697 0C43.6769 0 52.3329 3.58554 58.8434 10.0961C65.3534 16.6066 68.9395 25.2621 68.9395 34.4697C68.9395 43.6769 65.3534 52.3329 58.8434 58.8434C52.3329 65.3534 43.6769 68.9395 34.4697 68.9395Z" fill="black"/>
</g>
<path d="M65.425 34.4697C65.425 17.3735 51.5659 3.51392 34.4697 3.51392C17.3735 3.51392 3.51392 17.3735 3.51392 34.4697C3.51392 51.5659 17.3735 65.425 34.4697 65.425C51.5659 65.425 65.425 51.5659 65.425 34.4697Z" fill="#F8FAFB"/>
<path d="M63.1976 34.4696C63.1976 18.6032 50.3359 5.74146 34.47 5.74146C18.6036 5.74146 5.74182 18.6032 5.74182 34.4696C5.74182 50.3355 18.6036 63.1973 34.47 63.1973C50.3359 63.1973 63.1976 50.3355 63.1976 34.4696Z" fill="#FEFEFE"/>
<path d="M39.6709 24.6641H39.8625C40.2442 24.6641 40.5538 24.354 40.5538 23.9728C40.5538 23.5911 40.2442 23.281 39.8625 23.281H39.6709C39.2892 23.281 38.9796 23.5911 38.9796 23.9728C38.9796 24.354 39.2892 24.6641 39.6709 24.6641Z" fill="black"/>
<path d="M39.6709 30.564H39.8625C40.2442 30.564 40.5538 30.2549 40.5538 29.8727C40.5538 29.491 40.2442 29.1814 39.8625 29.1814H39.6709C39.2892 29.1814 38.9796 29.491 38.9796 29.8727C38.9796 30.2549 39.2892 30.564 39.6709 30.564Z" fill="black"/>
<path d="M39.6709 27.6138H39.8625C40.2442 27.6138 40.5538 27.3042 40.5538 26.9225C40.5538 26.5408 40.2442 26.2312 39.8625 26.2312H39.6709C39.2892 26.2312 38.9796 26.5408 38.9796 26.9225C38.9796 27.3042 39.2892 27.6138 39.6709 27.6138Z" fill="black"/>
<path d="M45.7407 33.2305H41.8381C41.4564 33.2305 41.1468 33.5401 41.1468 33.9218V38.7593H37.9359C37.5542 38.7593 37.2446 39.0689 37.2446 39.4506V43.8388H34.0342C33.6525 43.8388 33.3429 44.1484 33.3429 44.5301V49.5658C33.3429 49.948 33.6525 50.2571 34.0342 50.2571C34.4159 50.2571 34.7255 49.948 34.7255 49.5658V45.2214H37.2446V49.5658C37.2446 49.948 37.5542 50.2571 37.9359 50.2571C38.3176 50.2571 38.6272 49.948 38.6272 49.5658V44.5337C38.6272 44.5326 38.6272 44.5316 38.6272 44.5301C38.6272 44.5296 38.6272 44.5286 38.6272 44.5281V40.1419H41.1468V49.5658C41.1468 49.948 41.4564 50.2571 41.8381 50.2571C42.2198 50.2571 42.5293 49.948 42.5293 49.5658V34.6131H45.0495V49.5658C45.0495 49.948 45.3591 50.2571 45.7407 50.2571C46.1224 50.2571 46.432 49.948 46.432 49.5658V33.9218C46.432 33.5401 46.1224 33.2305 45.7407 33.2305Z" fill="black"/>
<path d="M37.6743 14.2862C38.056 14.2862 38.3656 13.9766 38.3656 13.5949V13.556C38.3656 13.1743 38.056 12.8647 37.6743 12.8647C37.2926 12.8647 36.983 13.1743 36.983 13.556V13.5949C36.983 13.9766 37.2926 14.2862 37.6743 14.2862Z" fill="black"/>
<path d="M20.5775 48.6844V45.8426C21.6237 46.0695 21.9691 46.4522 21.9691 47.2484C21.9691 47.8993 21.3777 48.4691 20.5775 48.6844ZM17.8037 42.8102C17.8037 42.1592 18.3942 41.589 19.1949 41.3742V44.1988C17.8047 43.8378 17.8037 43.1354 17.8037 42.8102ZM20.5775 44.4313V41.3732C21.1331 41.5209 21.5975 41.8396 21.8244 42.2571C22.0059 42.5934 22.4264 42.7174 22.7618 42.5354C23.0971 42.3539 23.2216 41.9344 23.0396 41.598C22.5772 40.7454 21.651 40.1428 20.5775 39.9593V39.2968C20.5775 38.9151 20.2684 38.6055 19.8862 38.6055C19.5045 38.6055 19.1949 38.9151 19.1949 39.2968V39.9583C17.6141 40.2281 16.4211 41.4044 16.4211 42.8102C16.4211 43.8549 16.9223 45.1478 19.1949 45.6152V48.6864C18.6185 48.5346 18.1441 48.1993 17.9263 47.7581C17.7563 47.4163 17.3424 47.2756 16.9995 47.4455C16.6576 47.6149 16.5169 48.0294 16.6869 48.3713C17.1341 49.2753 18.0795 49.9107 19.1949 50.0993V50.7618C19.1949 51.1435 19.5045 51.4531 19.8862 51.4531C20.2684 51.4531 20.5775 51.1435 20.5775 50.7618V50.1003C22.1582 49.8305 23.3517 48.6541 23.3517 47.2484C23.3517 45.1816 21.711 44.6304 20.5775 44.4313Z" fill="black"/>
<path d="M48.053 23.281H42.2534C41.8717 23.281 41.5621 23.5911 41.5621 23.9728C41.5621 24.354 41.8717 24.6641 42.2534 24.6641H48.053C48.4342 24.6641 48.7443 24.354 48.7443 23.9728C48.7443 23.5911 48.4342 23.281 48.053 23.281Z" fill="black"/>
<path d="M44.8532 30.564C45.2349 30.564 45.5445 30.2549 45.5445 29.8727C45.5445 29.491 45.2349 29.1814 44.8532 29.1814H42.2534C41.8717 29.1814 41.5621 29.491 41.5621 29.8727C41.5621 30.2549 41.8717 30.564 42.2534 30.564H44.8532Z" fill="black"/>
<path d="M48.7443 26.9225C48.7443 26.5408 48.4342 26.2312 48.053 26.2312H42.2534C41.8717 26.2312 41.5621 26.5408 41.5621 26.9225C41.5621 27.3042 41.8717 27.6138 42.2534 27.6138H48.053C48.4342 27.6138 48.7443 27.3042 48.7443 26.9225Z" fill="black"/>
<path d="M31.6481 30.5836C29.6292 30.5836 27.9865 28.9413 27.9865 26.9224C27.9865 25.1405 29.2672 23.652 30.9563 23.3278V26.9224C30.9563 27.3041 31.2654 27.6137 31.6481 27.6137H35.2427C34.9185 29.3034 33.4301 30.5836 31.6481 30.5836ZM35.2427 26.2311H32.3394V23.3278C33.8042 23.6092 34.9609 24.7664 35.2427 26.2311ZM36.6919 26.9224C36.6919 24.1416 34.4289 21.8787 31.6481 21.8787C28.8663 21.8787 26.6039 24.1416 26.6039 26.9224C26.6039 29.7042 28.8663 31.9662 31.6481 31.9662C34.4289 31.9662 36.6919 29.7042 36.6919 26.9224Z" fill="black"/>
<path d="M32.6273 50.2571H47.1475C47.5292 50.2571 47.8387 49.948 47.8387 49.5658C47.8387 49.1841 47.5292 48.8745 47.1475 48.8745H32.6273C32.2451 48.8745 31.936 49.1841 31.936 49.5658C31.936 49.948 32.2451 50.2571 32.6273 50.2571Z" fill="black"/>
<path d="M29.3338 17.3266L29.6621 16.5123C30.0201 15.6254 30.8687 15.0521 31.8242 15.0521H33.2305V15.0833C33.2305 15.465 33.5401 15.7746 33.9218 15.7746C34.3035 15.7746 34.6131 15.465 34.6131 15.0833V13.8873C34.6131 12.1997 35.9861 10.8267 37.6742 10.8267C39.3624 10.8267 40.7354 12.1997 40.7354 13.8873V15.0833C40.7354 15.465 41.0449 15.7746 41.4266 15.7746C41.8083 15.7746 42.1179 15.465 42.1179 15.0833V15.0521H43.5242C44.4797 15.0521 45.3283 15.6254 45.6863 16.5123L46.0146 17.3266C46.0438 17.3997 46.0211 17.4577 45.9969 17.494C45.9722 17.5298 45.9268 17.5732 45.8482 17.5732H29.5002C29.4216 17.5732 29.3762 17.5298 29.3515 17.494C29.3273 17.4577 29.3046 17.3997 29.3338 17.3266ZM29.5002 18.9558H45.8482C46.368 18.9558 46.8521 18.6981 47.1425 18.2675C47.4335 17.8364 47.4914 17.2918 47.2968 16.8098L46.9686 15.995C46.3993 14.5826 45.047 13.6695 43.5242 13.6695H42.1124C41.9984 11.3203 40.0516 9.44409 37.6742 9.44409C35.2973 9.44409 33.35 11.3203 33.236 13.6695H31.8242C30.3015 13.6695 28.9491 14.5826 28.3799 15.9955L28.0516 16.8098C27.857 17.2918 27.915 17.8364 28.2059 18.2675C28.4963 18.6981 28.9804 18.9558 29.5002 18.9558Z" fill="black"/>
<path d="M50.5425 15.2659H49.1589C48.7773 15.2659 48.4677 15.5755 48.4677 15.9572C48.4677 16.3389 48.7773 16.6485 49.1589 16.6485H50.5425C51.2691 16.6485 51.8596 17.2394 51.8596 17.965V52.3712C51.8596 53.0973 51.2691 53.6882 50.542 53.6882H28.508C28.1263 53.6882 27.8162 53.9973 27.8162 54.3795C27.8162 54.7612 28.1263 55.0708 28.508 55.0708H50.542C52.031 55.0708 53.2422 53.8602 53.2422 52.3712V17.965C53.2422 16.4765 52.031 15.2659 50.5425 15.2659Z" fill="black"/>
<path d="M22.7974 26.32C23.1796 26.32 23.4887 26.0104 23.4887 25.6287V17.965C23.4887 17.2394 24.0791 16.6485 24.8057 16.6485H26.1893C26.5715 16.6485 26.8806 16.3389 26.8806 15.9572C26.8806 15.5755 26.5715 15.2659 26.1893 15.2659H24.8057C23.3172 15.2659 22.1061 16.4765 22.1061 17.965V25.6287C22.1061 26.0104 22.4157 26.32 22.7974 26.32Z" fill="black"/>
<path d="M19.9593 53.6881H19.8136C14.5591 53.6881 10.4436 50.6255 10.4436 46.7152C10.4436 43.6616 13.177 40.8208 15.3729 38.5382C16.3738 37.498 17.3187 36.5153 17.9197 35.6142C18.064 35.3974 18.1608 35.175 18.2203 34.9486H21.5527C21.6167 35.1846 21.7171 35.4211 21.8603 35.6576C22.3811 36.5122 23.2978 37.4607 24.3592 38.5599C26.5737 40.8516 29.3288 43.704 29.3288 46.7152C29.3288 50.6255 25.2133 53.6881 19.9593 53.6881ZM15.3306 29.8177C14.966 29.4526 14.6206 29.1082 14.4966 28.9297C14.3993 28.7906 14.3922 28.667 14.4724 28.5173C14.668 28.1497 15.3427 27.764 16.3688 27.764C16.3955 27.764 16.4217 27.7645 16.4479 27.7645C17.6838 27.7887 18.425 28.187 19.1415 28.5722C19.8787 28.9691 20.641 29.3795 21.6807 29.1163C21.8149 29.083 21.9586 29.0447 22.1083 29.0044C22.608 28.8717 24.1308 28.4658 24.396 28.7013C24.5286 28.9706 23.7269 30.0108 23.2958 30.5695C22.6065 31.4635 21.8154 32.4911 21.5532 33.5661H18.1512C17.716 32.2016 16.3516 30.8372 15.3306 29.8177ZM30.7114 46.7152C30.7114 43.1448 27.741 40.07 25.3535 37.5988C24.3491 36.5596 23.4818 35.6626 23.0411 34.9386C23.0396 34.935 23.0386 34.932 23.0366 34.9285C23.3407 34.8564 23.5676 34.5841 23.5676 34.2574C23.5676 33.9175 23.3215 33.6356 22.9978 33.5782C23.2368 32.9499 23.7556 32.2384 24.3909 31.4135C25.2955 30.2407 26.1497 29.1329 25.6364 28.0902C25.0021 26.8029 23.1238 27.3031 21.7523 27.6687C21.6081 27.707 21.471 27.7433 21.3419 27.7761C20.8452 27.9021 20.4898 27.7277 19.796 27.3545C19.0159 26.935 18.0443 26.4126 16.4746 26.3824C14.9897 26.3536 13.7559 26.9224 13.2526 27.8658C12.9259 28.4774 12.9668 29.1536 13.3631 29.7214C13.5572 29.9997 13.9086 30.3511 14.3539 30.7954C15.0699 31.5103 16.1953 32.6368 16.6718 33.5993C16.3889 33.6851 16.1807 33.9462 16.1807 34.2574C16.1807 34.5841 16.4081 34.8559 16.7116 34.9285C16.1736 35.709 15.3018 36.6176 14.3766 37.5792C12.0077 40.0408 9.06104 43.1045 9.06104 46.7152C9.06104 51.4005 13.7836 55.0707 19.8136 55.0707H19.9593C25.9883 55.0707 30.7114 51.4005 30.7114 46.7152Z" fill="black"/>
<mask id="mask1_120_1686" style="mask-type:luminance" maskUnits="userSpaceOnUse" x="13" y="38" width="14" height="15">
<path d="M13.0555 38.428H26.7124V52.0849H13.0555V38.428Z" fill="white"/>
</mask>
<g mask="url(#mask1_120_1686)">
<mask id="mask2_120_1686" style="mask-type:luminance" maskUnits="userSpaceOnUse" x="13" y="38" width="14" height="15">
<path d="M19.884 38.4277C16.1129 38.4277 13.0558 41.4848 13.0558 45.2559C13.0558 49.0275 16.1129 52.0846 19.884 52.0846C23.6556 52.0846 26.7127 49.0275 26.7127 45.2559C26.7127 41.4848 23.6556 38.4277 19.884 38.4277Z" fill="white"/>
</mask>
<g mask="url(#mask2_120_1686)">
<path d="M13.0558 38.4277H26.7127V52.0846H13.0558V38.4277Z" fill="white"/>
</g>
</g>
<mask id="mask3_120_1686" style="mask-type:luminance" maskUnits="userSpaceOnUse" x="15" y="39" width="10" height="12">
<path d="M15.3086 39.7773H24.5787V50.4739H15.3086V39.7773Z" fill="white"/>
</mask>
<g mask="url(#mask3_120_1686)">
<path d="M24.568 46.8592C24.568 46.0922 24.1157 45.4095 23.4178 44.9784C23.8858 44.5589 24.1711 44.0022 24.1711 43.3926C24.1711 42.3237 23.2933 41.4191 22.0942 41.1297V40.4046C22.0942 40.0582 21.7489 39.7773 21.3233 39.7773C20.8977 39.7773 20.5528 40.0582 20.5528 40.4046V41.0319H18.3998V40.4046C18.3998 40.0582 18.0549 39.7773 17.6293 39.7773C17.2038 39.7773 16.8584 40.0582 16.8584 40.4046V41.0319H16.097C15.6709 41.0319 15.326 41.3127 15.326 41.6596C15.326 42.006 15.6709 42.2869 16.097 42.2869H16.8675V47.9649H16.0965C15.6709 47.9649 15.326 48.2458 15.326 48.5922C15.326 48.9386 15.6709 49.2194 16.0965 49.2194H16.8584V49.8467C16.8584 50.1931 17.2033 50.4739 17.6293 50.4739C18.0549 50.4739 18.3998 50.1931 18.3998 49.8467V49.2194H20.5523V49.8467C20.5523 50.1931 20.8977 50.4739 21.3233 50.4739C21.7489 50.4739 22.0942 50.1931 22.0942 49.8467V49.1937C23.492 49.0253 24.568 48.0426 24.568 46.8592ZM18.4089 42.2869H21.2708C22.0201 42.2869 22.6297 42.7825 22.6297 43.3926C22.6297 44.0022 22.0201 44.4984 21.2708 44.4984H18.4089V42.2869ZM21.6677 47.9649H21.3238H21.3233H21.3228H18.4089V45.7529H21.6677C22.4169 45.7529 23.0261 46.2491 23.0261 46.8587C23.0261 47.4688 22.4169 47.9649 21.6677 47.9649Z" fill="black"/>
</g>
</svg>
